<?xml version="1.0" encoding="utf-8"?>
<svg viewBox="151.061 99.837 200 308" xmlns="http://www.w3.org/2000/svg">
  <g transform="matrix(1, 0, 0, 1, -43.865481, -147.953488)" style="">
    <rect class="secondary" transform="matrix(0, 1, -1, 0, 475.34549, -116.030518)"  x="363.821" y="80.419" width="300" height="200" rx="8" ry="8"/>
    <rect class="primary" transform="matrix(0.003547, 0.999994, -0.999994, 0.003547, 497.781647, -610.507568)" style="paint-order: stroke; " x="862.908" y="111.918" width="289" height="189" rx="6" ry="6"/>
  </g>
  <path class="secondary" transform="matrix(0, 1, -1, 0, 383.23696, -277.616479)"  d="M 377.453 45.857 H 682.453 A 3 3 0 0 1 685.453 48.857 V 50.857 A 3 3 0 0 1 682.453 53.857 H 377.453 V 45.857 Z"/>
  <path class="secondary" d="M 237.386 335.535 L 234.091 335.535 L 228.118 326.428 Q 227.592 325.63 227.39 325.225 L 227.35 325.225 Q 227.43 325.994 227.43 327.57 L 227.43 335.535 L 224.348 335.535 L 224.348 321.041 L 227.865 321.041 L 233.616 329.865 Q 234.01 330.461 234.344 331.047 L 234.384 331.047 Q 234.303 330.542 234.303 329.056 L 234.303 321.041 L 237.386 321.041 Z M 243.96 335.535 L 240.695 335.535 L 240.695 321.041 L 243.96 321.041 Z M 259.304 335.535 L 255.18 335.535 L 250.955 329.238 Q 250.834 329.056 250.571 328.44 L 250.521 328.44 L 250.521 335.535 L 247.256 335.535 L 247.256 321.041 L 250.521 321.041 L 250.521 327.894 L 250.571 327.894 Q 250.693 327.611 250.976 327.085 L 254.978 321.041 L 258.869 321.041 L 253.816 327.954 Z M 272.736 335.535 L 268.612 335.535 L 264.387 329.238 Q 264.266 329.056 264.003 328.44 L 263.952 328.44 L 263.952 335.535 L 260.688 335.535 L 260.688 321.041 L 263.952 321.041 L 263.952 327.894 L 264.003 327.894 Q 264.124 327.611 264.407 327.085 L 268.41 321.041 L 272.301 321.041 L 267.247 327.954 Z M 277.384 335.535 L 274.119 335.535 L 274.119 321.041 L 277.384 321.041 Z" transform="matrix(1.047103, 0, 0, 1.145513, -16.082497, -38.542427)" style="fill: rgb(71, 85, 105); white-space: pre;"/>
  <path class="secondary" transform="matrix(1.047103, 0, 0, 1.145513, -16.082497, -38.542427)" style="white-space: pre;"/>
  <rect class="secondary"  x="200" y="150" width="58" height="6" rx="2" ry="2"/>
  <rect class="secondary" x="200" y="160" width="72" height="6" rx="2" ry="2" />
  <rect class="secondary" x="200" y="170" width="84" height="6" rx="2" ry="2" />
</svg>
