<?xml version="1.0" encoding="utf-8"?>
<svg viewBox="0 0 500 500" xmlns="http://www.w3.org/2000/svg">
  <path d="M 343.75 127.456 L 451.172 250 L 343.75 372.544 L 343.75 312.5 C 343.75 297.656 333.301 285.714 320.313 285.714 L 203.125 285.714 L 203.125 214.286 L 320.313 214.286 C 333.301 214.286 343.75 202.344 343.75 187.5 L 343.75 127.456 Z M 500 250 C 500 237.166 495.508 224.888 487.598 215.848 L 374.219 86.608 C 365.723 76.898 354.199 71.428 342.188 71.428 C 317.188 71.428 296.875 94.642 296.875 123.214 L 296.875 160.714 L 203.125 160.714 C 177.246 160.714 156.25 184.71 156.25 214.286 L 156.25 285.714 C 156.25 315.29 177.246 339.286 203.125 339.286 L 296.875 339.286 L 296.875 376.786 C 296.875 405.358 317.188 428.572 342.188 428.572 C 354.199 428.572 365.723 423.102 374.219 413.392 L 487.598 284.152 C 495.508 275.112 500 262.834 500 250 Z M 164.063 53.572 C 177.051 53.572 187.5 41.63 187.5 26.786 C 187.5 11.942 177.051 0 164.063 0 L 85.938 0 C 38.477 0 0 43.974 0 98.214 L 0 401.786 C 0 456.026 38.477 500 85.938 500 L 164.063 500 C 177.051 500 187.5 488.058 187.5 473.214 C 187.5 458.37 177.051 446.428 164.063 446.428 L 85.938 446.428 C 64.355 446.428 46.875 426.45 46.875 401.786 L 46.875 98.214 C 46.875 73.55 64.355 53.572 85.938 53.572 L 164.063 53.572 Z" style=""/>
</svg>