<?xml version="1.0" encoding="utf-8"?>
<svg viewBox="0 0 500 500" xmlns="http://www.w3.org/2000/svg">
  <path d="M 299.922 25.263 C 176.422 25.263 76.422 125.563 76.422 249.263 C 76.422 372.963 176.422 473.263 299.922 473.263 C 360.522 473.263 415.422 449.063 455.722 409.863 C 460.722 404.963 462.022 397.363 458.822 391.163 C 455.622 384.963 448.722 381.463 441.822 382.663 C 432.022 384.363 422.022 385.263 411.722 385.263 C 314.822 385.263 251.934 312.355 251.934 215.155 C 251.934 149.355 272.222 86.163 325.522 55.963 C 331.622 52.463 334.722 45.463 333.222 38.663 C 331.722 31.863 325.922 26.763 318.922 26.163 C 312.622 25.663 306.322 25.363 299.922 25.363 L 299.922 25.263 Z"/>
</svg>
