<?xml version="1.0" encoding="utf-8"?>
<svg viewBox="0 0 500 500" xmlns="http://www.w3.org/2000/svg">
  <path d="M 178.935 23.437 C 178.935 10.449 168.503 0 155.536 0 C 142.57 0 132.138 10.449 132.138 23.437 L 132.138 62.5 L 93.141 62.5 C 58.727 62.5 30.746 90.528 30.746 125 L 30.746 140.625 L 30.746 187.5 L 30.746 437.5 C 30.746 471.972 58.727 500 93.141 500 L 405.116 500 C 439.531 500 467.512 471.972 467.512 437.5 L 467.512 187.5 L 467.512 140.625 L 467.512 125 C 467.512 90.528 439.531 62.5 405.116 62.5 L 366.12 62.5 L 366.12 23.437 C 366.12 10.449 355.688 0 342.722 0 C 329.755 0 319.323 10.449 319.323 23.437 L 319.323 62.5 L 178.935 62.5 L 178.935 23.437 Z M 77.542 187.5 L 420.716 187.5 L 420.716 437.5 C 420.716 446.093 413.696 453.125 405.116 453.125 L 93.141 453.125 C 84.562 453.125 77.542 446.093 77.542 437.5 L 77.542 187.5 Z" style=""/>
</svg>
