<?xml version="1.0" encoding="utf-8"?>
<svg viewBox="161.839 145.573 128 116.304" xmlns="http://www.w3.org/2000/svg">
  <path d="M 282.839 145.573 L 168.839 145.573 C 164.973 145.573 161.839 148.421 161.839 151.933 L 161.839 226.441 C 161.839 229.953 164.973 232.801 168.839 232.801 L 206.839 232.801 L 206.839 256.425 L 190.839 256.425 C 188.529 256.425 187.086 258.697 188.241 260.514 C 188.777 261.357 189.767 261.877 190.839 261.877 L 260.839 261.877 C 263.148 261.877 264.591 259.606 263.437 257.788 C 262.901 256.945 261.91 256.425 260.839 256.425 L 244.839 256.425 L 244.839 232.801 L 282.839 232.801 C 286.705 232.801 289.839 229.953 289.839 226.441 L 289.839 151.933 C 289.839 148.421 286.705 145.573 282.839 145.573 Z M 168.839 151.025 L 282.839 151.025 C 283.391 151.025 283.839 151.432 283.839 151.933 L 283.839 211.903 L 167.839 211.903 L 167.839 151.933 C 167.839 151.432 168.286 151.025 168.839 151.025 Z M 238.839 256.425 L 212.839 256.425 L 212.839 232.801 L 238.839 232.801 L 238.839 256.425 Z M 282.839 227.349 L 168.839 227.349 C 168.286 227.349 167.839 226.942 167.839 226.441 L 167.839 217.354 L 283.839 217.354 L 283.839 226.441 C 283.839 226.942 283.391 227.349 282.839 227.349 Z" style=""/>
</svg>
