<?xml version="1.0" encoding="utf-8"?>
<svg viewBox="159.146 149.869 128 124.927" xmlns="http://www.w3.org/2000/svg">
  <g>
    <path d="M 284.146 234.796 C 282.489 234.796 281.146 236.139 281.146 237.796 L 281.146 259.796 C 281.146 264.766 277.116 268.796 272.146 268.796 L 174.146 268.796 C 169.175 268.796 165.146 264.766 165.146 259.796 L 165.146 237.796 C 165.146 235.486 162.646 234.043 160.646 235.198 C 159.717 235.733 159.146 236.724 159.146 237.796 L 159.146 259.796 C 159.146 268.08 165.861 274.796 174.146 274.796 L 272.146 274.796 C 280.43 274.796 287.146 268.08 287.146 259.796 L 287.146 237.796 C 287.146 236.139 285.802 234.796 284.146 234.796 Z"/>
    <path d="M 221.026 242.994 C 221.161 243.127 221.308 243.248 221.466 243.354 L 221.706 243.484 C 221.886 243.599 222.086 243.68 222.296 243.724 L 222.546 243.794 C 222.929 243.869 223.323 243.869 223.706 243.794 L 223.966 243.714 L 224.266 243.624 C 224.369 243.576 224.469 243.522 224.566 243.464 L 224.776 243.344 C 224.941 243.232 225.095 243.105 225.236 242.964 L 252.146 216.084 C 253.968 214.665 253.572 211.806 251.432 210.937 C 250.188 210.431 248.76 210.814 247.936 211.874 L 226.146 233.634 L 226.146 152.874 C 226.146 150.564 223.646 149.121 221.646 150.275 C 220.717 150.811 220.146 151.802 220.146 152.874 L 220.146 233.634 L 198.356 211.874 C 196.533 210.455 193.859 211.542 193.542 213.829 C 193.43 214.631 193.648 215.444 194.146 216.084 L 221.026 242.994 Z"/>
  </g>
</svg>