<?xml version="1.0" encoding="utf-8"?>
<svg viewBox="0 0 500 500" xmlns="http://www.w3.org/2000/svg">
  <path d="M 187.501 372.544 L 294.922 249.998 L 187.501 127.455 L 187.501 187.499 C 187.501 202.344 177.051 214.285 164.062 214.285 L 46.875 214.285 L 46.875 285.713 L 164.062 285.713 C 177.051 285.713 187.501 297.655 187.501 312.499 L 187.501 372.544 Z M 343.749 249.998 C 343.749 262.833 339.258 275.111 331.348 284.151 L 217.969 413.392 C 209.473 423.103 197.949 428.572 185.937 428.572 C 160.938 428.572 140.625 405.356 140.625 376.785 L 140.625 339.285 L 46.875 339.285 C 20.996 339.285 0 315.29 0 285.713 L 0 214.285 C 0 184.709 20.996 160.715 46.875 160.715 L 140.625 160.715 L 140.625 123.214 C 140.625 94.644 160.938 71.428 185.937 71.428 C 197.949 71.428 209.473 76.896 217.969 86.608 L 331.348 215.848 C 339.258 224.887 343.749 237.166 343.749 249.998 Z M 335.938 446.427 L 414.063 446.427 C 435.644 446.427 453.125 426.45 453.125 401.785 L 453.125 98.215 C 453.125 73.55 435.644 53.573 414.063 53.573 L 335.938 53.573 C 322.949 53.573 312.501 41.629 312.501 26.785 C 312.501 11.942 322.949 0 335.938 0 L 414.063 0 C 461.523 0 500 43.973 500 98.215 L 500 401.785 C 500 456.026 461.523 500 414.063 500 L 335.938 500 C 322.949 500 312.501 488.058 312.501 473.214 C 312.501 458.371 322.949 446.427 335.938 446.427 Z" style=""/>
</svg>