<?xml version="1.0" encoding="utf-8"?>
<svg viewBox="0 0 500 500" xmlns="http://www.w3.org/2000/svg">
  <path d="M 471.428 406.244 L 471.428 471.626 L 485.713 471.626 C 493.573 471.626 500 478.613 500 487.249 C 500 495.887 493.611 502.875 485.713 502.875 L 157.143 502.875 C 125.581 502.875 100 474.898 100 440.375 L 100 80.999 C 100 37.856 131.983 2.875 171.429 2.875 L 457.141 2.875 C 480.803 2.875 500 23.863 500 49.75 L 500 362.249 C 500 382.562 488.034 399.751 471.428 406.244 Z M 442.857 409.126 L 157.143 409.126 C 141.392 409.126 128.573 423.148 128.573 440.375 C 128.573 457.601 141.392 471.626 157.143 471.626 L 442.857 471.626 L 442.857 409.126 Z M 471.428 362.249 L 471.428 49.75 C 471.428 41.118 465 34.124 457.141 34.124 L 171.429 34.124 C 147.758 34.124 128.573 55.113 128.573 80.999 L 128.573 386.567 C 137.009 381.185 146.686 377.875 157.143 377.875 L 457.141 377.875 C 465 377.875 471.428 370.845 471.428 362.249 Z" style=""/>
  <path style="white-space: pre;"/>
  <path style="white-space: pre;"/>
  <path style="white-space: pre;"/>
  <path style="white-space: pre;"/>
  <path style="white-space: pre;"/>
  <path d="M 306.302 232.171 L 302.912 232.171 L 296.765 222.8 Q 296.224 221.979 296.016 221.563 L 295.975 221.563 Q 296.058 222.353 296.058 223.975 L 296.058 232.171 L 292.886 232.171 L 292.886 217.257 L 296.505 217.257 L 302.423 226.336 Q 302.828 226.95 303.172 227.553 L 303.213 227.553 Q 303.13 227.033 303.13 225.504 L 303.13 217.257 L 306.302 217.257 Z" transform="matrix(15.421245, 0, 0, 12.791494, -4327.572754, -2664.624268)" style="white-space: pre;"/>
  <path transform="matrix(1.008472, 0, 0, 1, -1.322338, 0)" style="white-space: pre;"/>
</svg>
