<?xml version="1.0" encoding="utf-8"?>
<svg viewBox="0 0 500 500" xmlns="http://www.w3.org/2000/svg">
  <path d="M 44.325 353.213 L 20.377 429.134 L 7.462 470.157 C 4.858 478.42 6.687 487.266 12.229 493.294 C 17.771 499.322 26.133 501.558 34.003 499.224 L 73.651 487.072 L 146.851 464.713 C 158.471 461.214 169.161 455.09 178.443 446.826 C 179.782 445.66 181.03 444.397 182.279 443.132 L 474.587 147.516 C 495.631 126.227 499.265 93.467 484.891 69.261 C 482.875 65.859 480.392 62.554 477.621 59.539 L 442.406 21.142 C 420.059 -3.161 382.499 -3.161 358.478 21.142 L 66.167 316.857 C 56.174 326.966 48.694 339.508 44.325 353.213 Z M 86.534 366.337 C 88.296 360.892 91.068 355.838 94.833 351.56 C 95.409 350.978 95.893 350.394 96.468 349.811 L 316.034 127.781 L 371.453 188.052 L 151.978 410.179 C 147.461 414.747 141.873 418.15 135.873 419.996 L 113.942 426.705 L 62.582 442.355 L 79.349 389.083 L 86.534 366.337 Z" style="" transform="matrix(0.999653, 0.026349, -0.026349, 0.999653, 6.71415, -6.497685)"/>
</svg>