<?xml version="1.0" encoding="utf-8"?>
<svg viewBox="0 0 500 500" xmlns="http://www.w3.org/2000/svg">
  <path d="M 193.639 246.566 C 206.163 252.817 217.619 261.024 227.62 271.183 C 237.619 281.343 245.872 292.87 252.085 305.375 C 354.804 276.068 404.221 227.711 428.299 182.285 C 452.571 136.565 454.804 86.938 449.658 47.765 C 410.726 42.587 361.406 44.834 315.969 69.257 C 270.823 93.483 222.765 143.306 193.639 246.566 Z M 374.319 303.421 L 374.319 383.723 C 374.319 408.537 361.309 431.591 340.046 444.194 L 254.124 495.481 C 246.939 499.78 238.007 499.878 230.726 495.676 C 223.444 491.476 218.979 483.759 218.979 475.259 L 218.979 363.208 C 218.979 341.13 210.24 319.931 194.707 304.301 C 179.173 288.67 158.105 279.878 136.163 279.878 L 24.804 279.878 C 16.455 279.878 8.688 275.384 4.512 268.057 C 0.338 260.73 0.435 251.743 4.707 244.514 L 55.677 158.058 C 68.299 136.663 91.115 123.572 115.775 123.572 L 195.581 123.572 C 274.998 -5.183 398.396 -9.775 471.309 3.706 C 482.571 5.758 491.405 14.647 493.444 25.98 C 506.842 99.345 502.279 223.51 374.319 303.421 Z M 28.979 498.607 C 13.444 498.998 1.212 486.689 1.6 471.058 C 2.473 434.229 8.979 369.46 42.28 336.05 C 75.677 302.444 129.755 302.444 163.154 336.05 C 196.551 369.655 196.551 424.07 163.154 457.675 C 129.95 491.183 65.581 497.728 28.979 498.607 Z M 77.716 435.597 C 90.143 434.913 108.008 431.983 117.814 422.213 C 128.881 411.076 128.881 392.906 117.814 381.77 C 106.746 370.633 88.687 370.633 77.619 381.77 C 67.813 391.636 64.999 409.611 64.318 422.115 C 63.833 429.931 70.047 436.085 77.814 435.695 L 77.716 435.597 Z M 319.95 139.203 C 319.95 109.122 352.311 90.322 378.202 105.362 C 390.217 112.343 397.619 125.243 397.619 139.203 C 397.619 169.284 365.256 188.085 339.367 173.044 C 327.351 166.064 319.95 153.164 319.95 139.203 Z" style="" transform="matrix(0.999983, 0.005779, -0.005779, 0.999983, 1.441201, -1.440599)"/>
</svg>
