<?xml version="1.0" encoding="utf-8"?>
<svg viewBox="0 0 500 500" xmlns="http://www.w3.org/2000/svg">
  <path d="M 249.999 0 C 237.012 0 226.563 10.449 226.563 23.437 L 226.563 85.938 C 226.563 98.925 237.012 109.375 249.999 109.375 C 262.988 109.375 273.437 98.925 273.437 85.938 L 273.437 23.437 C 273.437 10.449 262.988 0 249.999 0 Z M 249.999 390.625 C 237.012 390.625 226.563 401.075 226.563 414.062 L 226.563 476.563 C 226.563 489.551 237.012 500 249.999 500 C 262.988 500 273.437 489.551 273.437 476.563 L 273.437 414.062 C 273.437 401.075 262.988 390.625 249.999 390.625 Z M 476.562 273.437 C 489.551 273.437 500 262.989 500 250 C 500 237.011 489.551 226.563 476.562 226.563 L 414.063 226.563 C 401.074 226.563 390.625 237.011 390.625 250 C 390.625 262.989 401.074 273.437 414.063 273.437 L 476.562 273.437 Z M 109.375 250 C 109.375 237.011 98.926 226.563 85.937 226.563 L 23.438 226.563 C 10.449 226.563 0 237.011 0 250 C 0 262.989 10.449 273.437 23.438 273.437 L 85.937 273.437 C 98.926 273.437 109.375 262.989 109.375 250 Z M 426.757 106.347 C 435.937 97.168 435.937 82.324 426.757 73.242 C 417.578 64.16 402.734 64.063 393.653 73.242 L 349.414 117.48 C 340.234 126.66 340.234 141.504 349.414 150.585 C 358.593 159.668 373.437 159.766 382.519 150.585 L 426.757 106.347 Z M 150.586 349.414 C 141.407 340.234 126.563 340.234 117.481 349.414 L 73.242 393.653 C 64.062 402.832 64.062 417.676 73.242 426.758 C 82.422 435.84 97.265 435.937 106.347 426.758 L 150.586 382.52 C 159.766 373.34 159.766 358.496 150.586 349.414 Z M 393.653 426.758 C 402.832 435.937 417.675 435.937 426.757 426.758 C 435.84 417.578 435.937 402.735 426.757 393.653 L 382.519 349.414 C 373.34 340.234 358.496 340.234 349.414 349.414 C 340.332 358.594 340.234 373.438 349.414 382.52 L 393.653 426.758 Z M 150.586 150.585 C 159.766 141.406 159.766 126.562 150.586 117.48 L 106.347 73.242 C 97.168 64.063 82.324 64.063 73.242 73.242 C 64.16 82.422 64.062 97.265 73.242 106.347 L 117.481 150.585 C 126.66 159.766 141.504 159.766 150.586 150.585 Z M 249.999 359.375 C 334.197 359.375 386.82 268.229 344.721 195.313 C 325.183 161.472 289.076 140.625 249.999 140.625 C 165.803 140.625 113.18 231.771 155.278 304.687 C 174.817 338.528 210.924 359.375 249.999 359.375 Z" style=""/>
</svg>