<?xml version="1.0" encoding="utf-8"?>
<svg viewBox="0 0 500 500" xmlns="http://www.w3.org/2000/svg">
  <path d="M 323.734 125.14 C 323.734 65.022 261.062 27.448 210.924 57.506 C 187.655 71.457 173.32 97.239 173.32 125.14 C 173.32 185.258 235.993 222.831 286.131 192.773 C 309.4 178.822 323.734 153.04 323.734 125.14 Z M 128.196 125.14 C 128.196 28.951 228.473 -31.168 308.693 16.927 C 345.923 39.248 368.858 80.498 368.858 125.14 C 368.858 221.328 268.582 281.447 188.362 233.353 C 151.132 211.031 128.196 169.781 128.196 125.14 Z M 84.294 453.142 L 412.761 453.142 C 404.394 391.35 353.253 343.808 291.489 343.808 L 205.565 343.808 C 143.802 343.808 92.661 391.35 84.294 453.142 Z M 37.948 471.007 C 37.948 374.852 112.967 296.951 205.565 296.951 L 291.489 296.951 C 384.088 296.951 459.107 374.852 459.107 471.007 C 459.107 487.017 446.604 500 431.186 500 L 65.869 500 C 50.451 500 37.948 487.017 37.948 471.007 Z" style=""/>
</svg>